<?xml version="1.0" encoding="UTF-8" standalone="no"?>
<svg
   viewBox="0 0 238.11192 61.904049"
   version="1.1"
   id="svg5"
   sodipodi:docname="logo-horizontal-color.svg"
   width="238.11192"
   height="61.904049"
   xmlns:inkscape="http://www.inkscape.org/namespaces/inkscape"
   xmlns:sodipodi="http://sodipodi.sourceforge.net/DTD/sodipodi-0.dtd"
   xmlns="http://www.w3.org/2000/svg"
   xmlns:svg="http://www.w3.org/2000/svg">
  <defs
     id="defs5" />
  <sodipodi:namedview
     id="namedview5"
     pagecolor="#ffffff"
     bordercolor="#000000"
     borderopacity="0.25"
     inkscape:showpageshadow="2"
     inkscape:pageopacity="0.0"
     inkscape:pagecheckerboard="0"
     inkscape:deskcolor="#d1d1d1" />
  <g
     transform="matrix(0.1355,0,0,0.1355,0,4.9601845e-5)"
     id="g5">
    <path
       fill="#031c54"
       d="m 216.407,0.305 c 4.035,-0.431 9.143,-0.271 13.219,-0.297 53.362,-0.34 107.281,20.745 140.318,63.88 19.865,25.937 31.159,55.921 33.687,88.57 1.075,13.878 0.854,27.225 0.819,41.111 -8.901,-4.142 -18.357,-6.968 -28.071,-8.387 -28.976,-4.307 -51.804,3.277 -74.864,20.213 l 0.133,-34.369 c 0.037,-27.249 0.03,-50.443 -17.084,-73.903 -11.041,-15.134 -27.002,-25.033 -45.6,-27.888 -4.216,-0.577 -8.469,-0.849 -12.724,-0.814 -40.913,0.135 -65.142,30.161 -70.701,68.576 -1.67,11.541 -1.523,22.008 -1.52,33.596 0.009,11.585 0.093,23.17 0.252,34.754 -8.231,-6.563 -17.463,-11.76 -27.343,-15.393 -25.581,-9.429 -52.072,-7.608 -76.659,3.737 0.314,-13.504 -0.128,-26.661 0.782,-40.15 C 54.924,96.158 88.842,44.767 140.484,19.203 165.179,6.978 189.006,2.13 216.407,0.305 Z"
       id="path1" />
    <path
       fill="#2e86ab"
       d="m 355.271,198.304 c 8.942,-0.63 13.532,0.37 22.225,2.325 -29.911,15.133 -47.91,45.034 -51.741,77.938 -1.197,10.438 -0.47,21.032 -0.83,31.525 -1.728,50.372 -39.195,98.845 -92.082,100.167 -27.639,0.691 -46.591,-6.983 -66.702,-25.776 -11.12,-11.211 -23.94,-29.087 -27.164,-44.798 1.347,1.266 2.722,2.502 4.123,3.707 16.252,13.763 37.311,20.495 58.533,18.712 12.762,-1.18 25.692,-6.391 36.117,-13.756 16.841,-11.735 28.135,-29.861 31.246,-50.15 1.337,-8.75 1.217,-16.068 3.175,-25.26 3.267,-15.448 10.318,-29.842 20.52,-41.892 16.115,-19.229 37.555,-30.613 62.58,-32.742 z"
       id="path2" />
    <path
       fill="#031c54"
       d="m 16.661,199.803 c 8.692,-0.507 17.21,-0.116 25.736,1.754 37.166,8.225 65.766,37.95 72.553,75.404 2.152,11.452 1.709,20.491 2.099,31.83 0.616,23.546 7.756,46.458 20.623,66.187 19.841,30.657 46.589,44.916 81.286,52.271 -5.289,0.284 -10.938,0.197 -16.26,0.21 C 128.453,425.124 68.143,377.965 57.395,302.255 53.963,278.08 59.719,257.483 45.696,234.861 33.664,215.451 21.481,207.772 0,202.039 c 5.492,-1.18 11.066,-1.82 16.661,-2.236 z"
       id="path3" />
    <path
       fill="#031c54"
       d="m 426.478,199.806 c 8.467,-0.783 19.061,0.702 27.401,2.238 -33.762,8.304 -50.732,31.672 -54.618,65.949 -0.456,5.886 -0.362,11.854 -0.462,17.761 -1.289,75.544 -59.478,134.338 -133.992,140.91 -8.015,0.986 -20.39,0.865 -28.407,0.543 59.333,-10.646 96.629,-54.554 101.355,-114.238 0.637,-8.039 0.35,-16.03 0.874,-23.989 1.28,-21.351 9.636,-41.666 23.749,-57.737 16.647,-19.156 38.859,-29.646 64.1,-31.437 z"
       id="path4" />
    <path
       fill="#2e86ab"
       d="m 89.857,198.801 c 42.02,-3.535 81.442,28.033 93.508,67.089 3.13,10.132 3.695,20.202 8.819,29.862 6.125,11.547 15.582,21.535 28.251,25.691 12.518,4.092 22.601,-1.508 33.367,-7.051 -5.309,7.726 -10.216,13.828 -17.629,19.618 -34.547,25.146 -86.32,10.438 -102.914,-28.859 -2.955,-6.572 -2.495,-13.604 -2.859,-20.701 -1.661,-32.443 -22.348,-70.894 -53.373,-83.808 4.814,-0.956 7.96,-1.436 12.83,-1.841 z"
       id="path5" />
  </g>
  <path
     d="m 82.528,17.87205 q 0,-0.32 0.192,-0.512 0.256,-0.256 0.576,-0.256 h 7.488 q 0.32,0 0.512,0.256 0.256,0.192 0.256,0.512 v 31.36 q 0,0.32 -0.256,0.576 -0.192,0.192 -0.512,0.192 h -7.488 q -0.32,0 -0.576,-0.192 -0.192,-0.256 -0.192,-0.576 v -2.176 q 0,-0.192 -0.128,-0.192 -0.128,-0.064 -0.256,0.128 -2.56,3.456 -7.936,3.456 -4.864,0 -8,-2.944 -3.136,-2.944 -3.136,-8.256 v -21.376 q 0,-0.32 0.192,-0.512 0.256,-0.256 0.576,-0.256 h 7.424 q 0.32,0 0.512,0.256 0.256,0.192 0.256,0.512 v 19.136 q 0,2.56 1.344,4.16 1.408,1.6 3.84,1.6 2.176,0 3.584,-1.28 1.408,-1.344 1.728,-3.456 z m 34.56,5.696 q 0,0.32 -0.256,0.576 -0.192,0.192 -0.512,0.192 h -6.144 q -0.32,0 -0.32,0.32 v 13.568 q 0,2.112 0.832,3.136 0.896,1.024 2.816,1.024 h 2.112 q 0.32,0 0.512,0.256 0.256,0.192 0.256,0.512 v 6.08 q 0,0.704 -0.768,0.832 -2.688,0.128 -3.84,0.128 -5.312,0 -7.936,-1.728 -2.624,-1.792 -2.688,-6.656 v -17.152 q 0,-0.32 -0.32,-0.32 h -3.647995 q -0.32,0 -0.576,-0.192 -0.192,-0.256 -0.192,-0.576 v -5.696 q 0,-0.32 0.192,-0.512 0.256,-0.256 0.576,-0.256 H 100.832 q 0.32,0 0.32,-0.32 V 9.1680496 q 0,-0.32 0.192,-0.512 0.256,-0.256 0.576,-0.256 h 7.168 q 0.32,0 0.512,0.256 0.256,0.192 0.256,0.512 V 16.78405 q 0,0.32 0.32,0.32 h 6.144 q 0.32,0 0.512,0.256 0.256,0.192 0.256,0.512 z m 34.81595,2.368 q 1.152,3.264 1.152,7.68 0,4.416 -1.216,8 -1.472,4.096 -4.672,6.528 -3.136,2.368 -7.808,2.368 -4.608,0 -7.168,-3.2 -0.128,-0.192 -0.256,-0.128 -0.128,0.064 -0.128,0.256 v 13.696 q 0,0.32 -0.256,0.512 -0.192,0.256 -0.512,0.256 h -7.488 q -0.32,0 -0.576,-0.256 -0.192,-0.192 -0.192,-0.512 v -43.264 q 0,-0.32 0.192,-0.512 0.256,-0.256 0.576,-0.256 h 7.488 q 0.32,0 0.512,0.256 0.256,0.192 0.256,0.512 v 2.112 q 0,0.192 0.128,0.256 0.128,0 0.256,-0.128 2.688,-3.52 7.424,-3.52 4.416,0 7.616,2.496 3.264,2.432 4.672,6.848 z m -9.792,14.336 q 1.6,-2.496 1.6,-6.784 0,-4.032 -1.344,-6.4 -1.472,-2.752 -4.736,-2.752 -2.944,0 -4.416,2.752 -1.344,2.304 -1.344,6.464 0,4.288 1.408,6.656 1.472,2.56 4.352,2.56 2.88,0 4.48,-2.496 z m 31.10404,10.24 q -5.376,0 -9.216,-2.816 -3.84,-2.816 -5.248,-7.68 -0.896,-3.008 -0.896,-6.528 0,-3.776 0.896,-6.784 1.472,-4.736 5.312,-7.424 3.84,-2.688 9.216,-2.688 5.248,0 8.96,2.688 3.712,2.624 5.248,7.36 1.024,3.2 1.024,6.72 0,3.456 -0.896,6.464 -1.408,4.992 -5.248,7.872 -3.776,2.816 -9.152,2.816 z m 0,-7.744 q 2.112,0 3.584,-1.28 1.472,-1.28 2.112,-3.52 0.512,-2.048 0.512,-4.48 0,-2.688 -0.512,-4.544 -0.704,-2.176 -2.176,-3.392 -1.472,-1.216 -3.584,-1.216 -2.176,0 -3.648,1.216 -1.408,1.216 -2.048,3.392 -0.512,1.536 -0.512,4.544 0,2.88 0.448,4.48 0.64,2.24 2.112,3.52 1.536,1.28 3.712,1.28 z m 37.50394,-26.112 q 2.304,0 3.648,0.896 0.512,0.256 0.384,0.96 l -1.344,7.296 q -0.064,0.768 -0.896,0.448 -0.96,-0.32 -2.24,-0.32 -0.512,0 -1.408,0.128 -2.304,0.192 -3.904,1.728 -1.6,1.472 -1.6,3.968 v 17.472 q 0,0.32 -0.256,0.576 -0.192,0.192 -0.512,0.192 h -7.488 q -0.32,0 -0.576,-0.192 -0.192,-0.256 -0.192,-0.576 v -31.36 q 0,-0.32 0.192,-0.512 0.256,-0.256 0.576,-0.256 h 7.488 q 0.32,0 0.512,0.256 0.256,0.192 0.256,0.512 v 2.432 q 0,0.192 0.128,0.256 0.128,0.064 0.192,-0.064 2.624,-3.84 7.04,-3.84 z m 27.392,6.912 q 0,0.32 -0.256,0.576 -0.192,0.192 -0.512,0.192 h -6.144 q -0.32,0 -0.32,0.32 v 13.568 q 0,2.112 0.832,3.136 0.896,1.024 2.816,1.024 h 2.112 q 0.32,0 0.512,0.256 0.256,0.192 0.256,0.512 v 6.08 q 0,0.704 -0.768,0.832 -2.688,0.128 -3.84,0.128 -5.312,0 -7.936,-1.728 -2.624,-1.792 -2.688,-6.656 v -17.152 q 0,-0.32 -0.32,-0.32 h -3.648 q -0.32,0 -0.576,-0.192 -0.192,-0.256 -0.192,-0.576 v -5.696 q 0,-0.32 0.192,-0.512 0.256,-0.256 0.576,-0.256 h 3.648 q 0.32,0 0.32,-0.32 V 9.1680496 q 0,-0.32 0.192,-0.512 0.256,-0.256 0.576,-0.256 h 7.168 q 0.32,0 0.512,0.256 0.256,0.192 0.256,0.512 V 16.78405 q 0,0.32 0.32,0.32 h 6.144 q 0.32,0 0.512,0.256 0.256,0.192 0.256,0.512 z"
     id="text5"
     style="font-weight:700;font-size:64px;font-family:Barlow;fill:#031c54"
     aria-label="utport" />
</svg>
