<svg width="24" height="24" viewBox="0 0 453.879 427.462" xmlns="http://www.w3.org/2000/svg">
  <path fill="currentColor" d="m 216.407,0.305 c 4.035,-0.431 9.143,-0.271 13.219,-0.297 53.362,-0.34 107.281,20.745 140.318,63.88 19.865,25.937 31.159,55.921 33.687,88.57 1.075,13.878 0.854,27.225 0.819,41.111 -8.901,-4.142 -18.357,-6.968 -28.071,-8.387 -28.976,-4.307 -51.804,3.277 -74.864,20.213 l 0.133,-34.369 c 0.037,-27.249 0.03,-50.443 -17.084,-73.903 -11.041,-15.134 -27.002,-25.033 -45.6,-27.888 -4.216,-0.577 -8.469,-0.849 -12.724,-0.814 -40.913,0.135 -65.142,30.161 -70.701,68.576 -1.67,11.541 -1.523,22.008 -1.52,33.596 0.009,11.585 0.093,23.17 0.252,34.754 -8.231,-6.563 -17.463,-11.76 -27.343,-15.393 -25.581,-9.429 -52.072,-7.608 -76.659,3.737 0.314,-13.504 -0.128,-26.661 0.782,-40.15 C 54.924,96.158 88.842,44.767 140.484,19.203 165.179,6.978 189.006,2.13 216.407,0.305 Z"/>
  <path fill="currentColor" d="m 355.271,198.304 c 8.942,-0.63 13.532,0.37 22.225,2.325 -29.911,15.133 -47.91,45.034 -51.741,77.938 -1.197,10.438 -0.47,21.032 -0.83,31.525 -1.728,50.372 -39.195,98.845 -92.082,100.167 -27.639,0.691 -46.591,-6.983 -66.702,-25.776 -11.12,-11.211 -23.94,-29.087 -27.164,-44.798 1.347,1.266 2.722,2.502 4.123,3.707 16.252,13.763 37.311,20.495 58.533,18.712 12.762,-1.18 25.692,-6.391 36.117,-13.756 16.841,-11.735 28.135,-29.861 31.246,-50.15 1.337,-8.75 1.217,-16.068 3.175,-25.26 3.267,-15.448 10.318,-29.842 20.52,-41.892 16.115,-19.229 37.555,-30.613 62.58,-32.742 z"/>
  <path fill="currentColor" d="m 16.661,199.803 c 8.692,-0.507 17.21,-0.116 25.736,1.754 37.166,8.225 65.766,37.95 72.553,75.404 2.152,11.452 1.709,20.491 2.099,31.83 0.616,23.546 7.756,46.458 20.623,66.187 19.841,30.657 46.589,44.916 81.286,52.271 -5.289,0.284 -10.938,0.197 -16.26,0.21 -74.245,-2.335 -134.555,-49.494 -145.303,-125.204 -3.432,-24.175 2.324,-44.772 -11.699,-67.394 -12.032,-19.41 -24.215,-27.089 -45.696,-32.822 5.492,-1.18 11.066,-1.82 16.661,-2.236 z"/>
  <path fill="currentColor" d="m 426.478,199.806 c 8.467,-0.783 19.061,0.702 27.401,2.238 -33.762,8.304 -50.732,31.672 -54.618,65.949 -0.456,5.886 -0.362,11.854 -0.462,17.761 -1.289,75.544 -59.478,134.338 -133.992,140.91 -8.015,0.986 -20.39,0.865 -28.407,0.543 59.333,-10.646 96.629,-54.554 101.355,-114.238 0.637,-8.039 0.35,-16.03 0.874,-23.989 1.28,-21.351 9.636,-41.666 23.749,-57.737 16.647,-19.156 38.859,-29.646 64.1,-31.437 z"/>
  <path fill="currentColor" d="m 89.857,198.801 c 42.02,-3.535 81.442,28.033 93.508,67.089 3.13,10.132 3.695,20.202 8.819,29.862 6.125,11.547 15.582,21.535 28.251,25.691 12.518,4.092 22.601,-1.508 33.367,-7.051 -5.309,7.726 -10.216,13.828 -17.629,19.618 -34.547,25.146 -86.32,10.438 -102.914,-28.859 -2.955,-6.572 -2.495,-13.604 -2.859,-20.701 -1.661,-32.443 -22.348,-70.894 -53.373,-83.808 4.814,-0.956 7.96,-1.436 12.83,-1.841 z"/>
</svg>
